<svg width="14" height="14" viewBox="0 0 14 14" fill="none" xmlns="http://www.w3.org/2000/svg">
<path fill-rule="evenodd" clip-rule="evenodd" d="M4.33333 11C3.6 11 3.00666 11.6 3.00666 12.3333C3.00666 13.0666 3.6 13.6666 4.33333 13.6666C5.06666 13.6666 5.66666 13.0666 5.66666 12.3333C5.66666 11.6 5.06666 11 4.33333 11ZM0.333328 0.99998C0.333328 1.36665 0.633328 1.66665 0.999995 1.66665H1.66666L4.06666 6.72665L3.16666 8.35331C2.67999 9.24665 3.31999 10.3333 4.33333 10.3333H11.6667C12.0333 10.3333 12.3333 10.0333 12.3333 9.66665C12.3333 9.29998 12.0333 8.99998 11.6667 8.99998H4.33333L5.06666 7.66665H10.0333C10.5333 7.66665 10.9733 7.39331 11.2 6.97998L13.5867 2.65331C13.8333 2.21331 13.5133 1.66665 13.0067 1.66665H3.13999L2.69333 0.713313C2.58666 0.47998 2.34666 0.333313 2.09333 0.333313H0.999995C0.633328 0.333313 0.333328 0.633313 0.333328 0.99998ZM11 11C10.2667 11 9.67333 11.6 9.67333 12.3333C9.67333 13.0666 10.2667 13.6666 11 13.6666C11.7333 13.6666 12.3333 13.0666 12.3333 12.3333C12.3333 11.6 11.7333 11 11 11Z" fill="#C3CAD9"/>
</svg>
