<svg width="12" height="4" viewBox="0 0 12 4" fill="none" xmlns="http://www.w3.org/2000/svg">
<path fill-rule="evenodd" clip-rule="evenodd" d="M1.99999 0.666687C1.26666 0.666687 0.666656 1.26669 0.666656 2.00002C0.666656 2.73335 1.26666 3.33335 1.99999 3.33335C2.73332 3.33335 3.33332 2.73335 3.33332 2.00002C3.33332 1.26669 2.73332 0.666687 1.99999 0.666687ZM9.99999 0.666687C9.26666 0.666687 8.66666 1.26669 8.66666 2.00002C8.66666 2.73335 9.26666 3.33335 9.99999 3.33335C10.7333 3.33335 11.3333 2.73335 11.3333 2.00002C11.3333 1.26669 10.7333 0.666687 9.99999 0.666687ZM5.99999 0.666687C5.26666 0.666687 4.66666 1.26669 4.66666 2.00002C4.66666 2.73335 5.26666 3.33335 5.99999 3.33335C6.73332 3.33335 7.33332 2.73335 7.33332 2.00002C7.33332 1.26669 6.73332 0.666687 5.99999 0.666687Z" fill="#C3CAD9"/>
</svg>
